solid OpenSCAD_Model
  facet normal -1 0 0
    outer loop
      vertex -30 -15 -0.25
      vertex -30 15 0.25
      vertex -30 15 -0.25
    endloop
  endfacet
  facet normal -1 -0 0
    outer loop
      vertex -30 15 0.25
      vertex -30 -15 -0.25
      vertex -30 -15 0.25
    endloop
  endfacet
  facet normal -0 0 1
    outer loop
      vertex -30 15 0.25
      vertex 30 -15 0.25
      vertex 30 15 0.25
    endloop
  endfacet
  facet normal 0 0 1
    outer loop
      vertex 30 -15 0.25
      vertex -30 15 0.25
      vertex -30 -15 0.25
    endloop
  endfacet
  facet normal 1 -0 0
    outer loop
      vertex 30 -15 0.25
      vertex 30 15 -0.25
      vertex 30 15 0.25
    endloop
  endfacet
  facet normal 1 0 0
    outer loop
      vertex 30 15 -0.25
      vertex 30 -15 0.25
      vertex 30 -15 -0.25
    endloop
  endfacet
  facet normal 0 1 -0
    outer loop
      vertex 30 15 -0.25
      vertex -30 15 0.25
      vertex 30 15 0.25
    endloop
  endfacet
  facet normal 0 1 0
    outer loop
      vertex -30 15 0.25
      vertex 30 15 -0.25
      vertex -30 15 -0.25
    endloop
  endfacet
  facet normal 0 0 -1
    outer loop
      vertex 30 -15 -0.25
      vertex 0.5 0 -0.25
      vertex 30 15 -0.25
    endloop
  endfacet
  facet normal 0 0 -1
    outer loop
      vertex 30 -15 -0.25
      vertex 0 0 -0.25
      vertex 0.5 0 -0.25
    endloop
  endfacet
  facet normal 0 0 -1
    outer loop
      vertex -30 15 -0.25
      vertex 0 0 -0.25
      vertex -30 -15 -0.25
    endloop
  endfacet
  facet normal 0 0 -1
    outer loop
      vertex -30 -15 -0.25
      vertex 0 0 -0.25
      vertex 30 -15 -0.25
    endloop
  endfacet
  facet normal 0 0 -1
    outer loop
      vertex 0.5 0.5 -0.25
      vertex 30 15 -0.25
      vertex 0.5 0 -0.25
    endloop
  endfacet
  facet normal 0 0 -1
    outer loop
      vertex 0 0.5 -0.25
      vertex 30 15 -0.25
      vertex 0.5 0.5 -0.25
    endloop
  endfacet
  facet normal 0 0 -1
    outer loop
      vertex 0 0.5 -0.25
      vertex -30 15 -0.25
      vertex 30 15 -0.25
    endloop
  endfacet
  facet normal 0 0 -1
    outer loop
      vertex 0 0 -0.25
      vertex -30 15 -0.25
      vertex 0 0.5 -0.25
    endloop
  endfacet
  facet normal 0 -1 0
    outer loop
      vertex -30 -15 -0.25
      vertex 30 -15 0.25
      vertex -30 -15 0.25
    endloop
  endfacet
  facet normal 0 -1 -0
    outer loop
      vertex 30 -15 0.25
      vertex -30 -15 -0.25
      vertex 30 -15 -0.25
    endloop
  endfacet
  facet normal -1 0 0
    outer loop
      vertex 0 0 -3
      vertex 0 0.5 -0.25
      vertex 0 0.5 -3
    endloop
  endfacet
  facet normal -1 -0 0
    outer loop
      vertex 0 0.5 -0.25
      vertex 0 0 -3
      vertex 0 0 -0.25
    endloop
  endfacet
  facet normal 1 -0 0
    outer loop
      vertex 0.5 0 -0.25
      vertex 0.5 0.5 -3
      vertex 0.5 0.5 -0.25
    endloop
  endfacet
  facet normal 1 0 0
    outer loop
      vertex 0.5 0.5 -3
      vertex 0.5 0 -0.25
      vertex 0.5 0 -3
    endloop
  endfacet
  facet normal 0 0 -1
    outer loop
      vertex 0 0 -3
      vertex 0.5 0.5 -3
      vertex 0.5 0 -3
    endloop
  endfacet
  facet normal -0 0 -1
    outer loop
      vertex 0.5 0.5 -3
      vertex 0 0 -3
      vertex 0 0.5 -3
    endloop
  endfacet
  facet normal 0 -1 0
    outer loop
      vertex 0 0 -3
      vertex 0.5 0 -0.25
      vertex 0 0 -0.25
    endloop
  endfacet
  facet normal 0 -1 -0
    outer loop
      vertex 0.5 0 -0.25
      vertex 0 0 -3
      vertex 0.5 0 -3
    endloop
  endfacet
  facet normal 0 1 -0
    outer loop
      vertex 0.5 0.5 -3
      vertex 0 0.5 -0.25
      vertex 0.5 0.5 -0.25
    endloop
  endfacet
  facet normal 0 1 0
    outer loop
      vertex 0 0.5 -0.25
      vertex 0.5 0.5 -3
      vertex 0 0.5 -3
    endloop
  endfacet
endsolid OpenSCAD_Model
